# Blender v2.78 (sub 0) OBJ File: ''
# www.blender.org
mtllib GrassTop.mtl
o Cube
v 0.500000 -0.500000 -0.500000
v 0.500000 -0.500000 0.500000
v -0.500000 -0.500000 0.500000
v -0.500000 -0.500000 -0.500000
v 0.500000 0.500000 -0.500000
v 0.500000 0.500000 0.500000
v -0.500000 0.500000 0.500000
v -0.500000 0.500000 -0.500000
vt 0.1188 0.3042
vt 0.4521 0.3042
vt 0.4521 0.6375
vt 0.1188 0.6375
vt 0.2864 0.7556
vt 0.2864 0.9618
vt 0.0802 0.9618
vt 0.0802 0.7556
vt 0.6823 0.3521
vt 0.3490 0.3521
vt 0.3490 0.0188
vt 0.6823 0.0188
vt 0.0219 0.3677
vt 0.0219 0.0344
vt 0.3552 0.0344
vt 0.3552 0.3677
vt 0.9063 0.4958
vt 0.5729 0.4958
vt 0.5729 0.1625
vt 0.9063 0.1625
vt 0.2677 0.3052
vt 0.6010 0.3052
vt 0.6010 0.6385
vt 0.2677 0.6385
vn 0.0000 -1.0000 0.0000
vn 0.0000 1.0000 0.0000
vn 1.0000 0.0000 0.0000
vn -0.0000 -0.0000 1.0000
vn -1.0000 -0.0000 -0.0000
vn 0.0000 0.0000 -1.0000
usemtl Material
s off
f 1/1/1 2/2/1 3/3/1 4/4/1
f 5/5/2 8/6/2 7/7/2 6/8/2
f 1/9/3 5/10/3 6/11/3 2/12/3
f 2/13/4 6/14/4 7/15/4 3/16/4
f 3/17/5 7/18/5 8/19/5 4/20/5
f 5/21/6 1/22/6 4/23/6 8/24/6
